<mxfile host="Electron" modified="2024-01-10T05:07:01.058Z" agent="Mozilla/5.0 (X11; Linux x86_64) AppleWebKit/537.36 (KHTML, like Gecko) draw.io/21.6.5 Chrome/114.0.5735.243 Electron/25.3.1 Safari/537.36" etag="gYTnjFjv9f1eepHWCP7P" version="21.6.5" type="device">
  <diagram name="Page-1" id="BeeQXuH5mpLVNXQqc5U8">
    <mxGraphModel dx="2074" dy="1267" grid="1" gridSize="10" guides="1" tooltips="1" connect="1" arrows="1" fold="1" page="1" pageScale="1" pageWidth="850" pageHeight="1100" math="0" shadow="0">
      <root>
        <mxCell id="0" />
        <mxCell id="1" parent="0" />
        <mxCell id="7uoHD_4SpCBYZxMYRfOL-54" style="edgeStyle=orthogonalEdgeStyle;shape=connector;rounded=0;orthogonalLoop=1;jettySize=auto;html=1;labelBackgroundColor=default;strokeColor=#636363;strokeWidth=3;align=center;verticalAlign=middle;fontFamily=Helvetica;fontSize=11;fontColor=#666666;endArrow=classic;" parent="1" source="7uoHD_4SpCBYZxMYRfOL-6" target="7uoHD_4SpCBYZxMYRfOL-13" edge="1">
          <mxGeometry relative="1" as="geometry" />
        </mxCell>
        <mxCell id="7uoHD_4SpCBYZxMYRfOL-6" value="" style="sketch=0;outlineConnect=0;gradientColor=none;fillColor=#19916E;strokeColor=none;dashed=0;verticalLabelPosition=bottom;verticalAlign=top;align=center;html=1;aspect=fixed;pointerEvents=1;shape=mxgraph.aws4.desired_state;spacing=-1;spacingBottom=1;fontColor=#666666;" parent="1" vertex="1">
          <mxGeometry x="670" y="240" width="78" height="78" as="geometry" />
        </mxCell>
        <mxCell id="7uoHD_4SpCBYZxMYRfOL-18" style="edgeStyle=orthogonalEdgeStyle;shape=connector;rounded=0;orthogonalLoop=1;jettySize=auto;html=1;labelBackgroundColor=default;strokeColor=#636363;strokeWidth=3;align=center;verticalAlign=middle;fontFamily=Helvetica;fontSize=11;fontColor=#666666;endArrow=classic;" parent="1" source="7uoHD_4SpCBYZxMYRfOL-13" target="7uoHD_4SpCBYZxMYRfOL-30" edge="1">
          <mxGeometry relative="1" as="geometry">
            <mxPoint x="697.9999999999998" y="398.9999999999998" as="targetPoint" />
          </mxGeometry>
        </mxCell>
        <mxCell id="7uoHD_4SpCBYZxMYRfOL-25" value="POSTs &lt;br&gt;serialized state" style="edgeLabel;html=1;align=center;verticalAlign=middle;resizable=0;points=[];fontSize=11;fontFamily=Helvetica;fontColor=#666666;labelBackgroundColor=none;" parent="7uoHD_4SpCBYZxMYRfOL-18" vertex="1" connectable="0">
          <mxGeometry x="0.1986" relative="1" as="geometry">
            <mxPoint x="-16" y="-16" as="offset" />
          </mxGeometry>
        </mxCell>
        <mxCell id="7uoHD_4SpCBYZxMYRfOL-13" value="Lexical" style="sketch=0;outlineConnect=0;fontColor=#666666;gradientColor=none;fillColor=#636363;strokeColor=none;dashed=0;verticalLabelPosition=bottom;verticalAlign=top;align=center;html=1;fontSize=12;fontStyle=0;aspect=fixed;pointerEvents=1;shape=mxgraph.aws4.client;fontFamily=Helvetica;" parent="1" vertex="1">
          <mxGeometry x="780" y="241" width="78" height="76" as="geometry" />
        </mxCell>
        <mxCell id="7uoHD_4SpCBYZxMYRfOL-51" style="edgeStyle=orthogonalEdgeStyle;shape=connector;rounded=0;orthogonalLoop=1;jettySize=auto;html=1;labelBackgroundColor=default;strokeColor=#636363;strokeWidth=3;align=center;verticalAlign=middle;fontFamily=Helvetica;fontSize=11;fontColor=#666666;endArrow=classic;" parent="1" source="7uoHD_4SpCBYZxMYRfOL-20" target="7uoHD_4SpCBYZxMYRfOL-6" edge="1">
          <mxGeometry relative="1" as="geometry" />
        </mxCell>
        <mxCell id="7uoHD_4SpCBYZxMYRfOL-20" value="User" style="sketch=0;outlineConnect=0;fontColor=#666666;gradientColor=none;fillColor=#636363;strokeColor=none;dashed=0;verticalLabelPosition=bottom;verticalAlign=top;align=center;html=1;fontSize=12;fontStyle=0;aspect=fixed;pointerEvents=1;shape=mxgraph.aws4.user;fontFamily=Helvetica;" parent="1" vertex="1">
          <mxGeometry x="521" y="244" width="70" height="70" as="geometry" />
        </mxCell>
        <mxCell id="7uoHD_4SpCBYZxMYRfOL-30" value="Service Responsable&lt;br&gt;of storing the application states" style="sketch=0;outlineConnect=0;fontColor=#666666;gradientColor=none;fillColor=#636363;strokeColor=none;dashed=0;verticalLabelPosition=bottom;verticalAlign=top;align=center;html=1;fontSize=12;fontStyle=0;aspect=fixed;pointerEvents=1;shape=mxgraph.aws4.servers;fontFamily=Helvetica;" parent="1" vertex="1">
          <mxGeometry x="954" y="240" width="78" height="78" as="geometry" />
        </mxCell>
        <mxCell id="7uoHD_4SpCBYZxMYRfOL-48" value="Provides&lt;br&gt;Desired State" style="edgeLabel;html=1;align=center;verticalAlign=middle;resizable=0;points=[];fontSize=11;fontFamily=Helvetica;fontColor=#666666;labelBackgroundColor=none;" parent="1" vertex="1" connectable="0">
          <mxGeometry x="618" y="260" as="geometry" />
        </mxCell>
        <mxCell id="7uoHD_4SpCBYZxMYRfOL-56" value="&lt;span style=&quot;font-family: Helvetica; font-size: 12px; font-style: normal; font-variant-ligatures: normal; font-variant-caps: normal; font-weight: 400; letter-spacing: normal; orphans: 2; text-indent: 0px; text-transform: none; widows: 2; word-spacing: 0px; -webkit-text-stroke-width: 0px; background-color: rgb(251, 251, 251); text-decoration-thickness: initial; text-decoration-style: initial; text-decoration-color: initial; float: none; display: inline !important;&quot;&gt;Desired State&lt;/span&gt;" style="text;whiteSpace=wrap;html=1;fontSize=11;fontFamily=Helvetica;fontColor=#666666;align=center;" parent="1" vertex="1">
          <mxGeometry x="667" y="314" width="84" height="40" as="geometry" />
        </mxCell>
      </root>
    </mxGraphModel>
  </diagram>
</mxfile>
